<svg id="Layer_1" data-name="Layer 1" xmlns="http://www.w3.org/2000/svg" xmlns:xlink="http://www.w3.org/1999/xlink" width="144.64mm" height="35.28mm" viewBox="0 0 410 100"><defs><style>.cls-1{fill:none;}.cls-2{fill:#1e9d8b;}.cls-3{fill:#fff;}.cls-4{clip-path:url(#clip-path);}</style><clipPath id="clip-path"><rect class="cls-1" width="410" height="100"/></clipPath></defs><title>logo-green</title><rect class="cls-2" width="410" height="100"/><polygon class="cls-3" points="46.73 28.96 46.73 32.95 38.5 32.95 38.5 71.53 33.94 71.53 33.94 32.95 25.7 32.95 25.7 28.96 46.73 28.96"/><polygon class="cls-3" points="51.67 28.96 70.11 28.96 70.11 32.95 56.17 32.95 56.17 48.09 68.33 48.09 68.33 52.08 56.17 52.08 56.17 67.54 70.11 67.54 70.11 71.53 51.67 71.53 51.67 28.96"/><g class="cls-4"><path class="cls-3" d="M76.19,37.64q0-9,11.4-9a27.76,27.76,0,0,1,7.35,1v4.19a26.9,26.9,0,0,0-7.48-1.08q-3.73,0-5.26,1.3a4.76,4.76,0,0,0-1.52,3.83V62.66a4.63,4.63,0,0,0,1.56,3.77c1,.86,2.85,1.3,5.44,1.3a26.11,26.11,0,0,0,7.38-1v4.12a24.46,24.46,0,0,1-7.47,1q-11.4,0-11.4-9Z"/><polygon class="cls-3" points="119.83 28.96 124.39 28.96 124.39 71.53 119.83 71.53 119.83 52.65 106.28 52.65 106.28 71.53 101.78 71.53 101.78 28.96 106.28 28.96 106.28 48.66 119.83 48.66 119.83 28.96"/><path class="cls-3" d="M152,64.31l-.44-14V29h4.5V71.53h-5.2l-8.74-22.05q-.51-1.32-5-13.24l.38,13.94V71.53h-4.37V29h5.19Q148.39,54.55,152,64.31"/><path class="cls-3" d="M164.17,38.4a10,10,0,0,1,2.73-7.29c1.81-1.86,4.49-2.79,8-2.79s6.2.93,8,2.79a10,10,0,0,1,2.72,7.29V62.15a9.87,9.87,0,0,1-2.72,7.25q-2.73,2.76-8.05,2.76t-8-2.76a9.9,9.9,0,0,1-2.7-7.25Zm17,.06q0-6-6.24-6t-6.24,6V62q0,6.07,6.24,6.08T181.15,62Z"/><path class="cls-3" d="M216.82,38v3.92q0,6-4.44,7.67,4.81,1.45,4.82,7.79v4.25q0,9.87-10.52,9.88H192.81V28.13H206.3q10.51,0,10.52,9.89M205.16,34.6h-4.75V46.32h4.75q4.18,0,4.18-3.93V38.46q0-3.85-4.18-3.86m4.56,26.6V57q0-3.93-4.18-3.93h-5.13v12h5.13q4.19,0,4.18-3.87"/><path class="cls-3" d="M222.77,38.33a10.34,10.34,0,0,1,3.1-7.88q3.1-3,9.19-2.95t9.22,2.95a10.29,10.29,0,0,1,3.13,7.88v23a10.29,10.29,0,0,1-3.13,7.88q-3.14,3-9.22,3t-9.19-3a10.34,10.34,0,0,1-3.1-7.88Zm17,.38q0-4.3-4.72-4.3t-4.72,4.3V61q0,4.3,4.72,4.31T239.81,61Z"/><polygon class="cls-3" points="274.4 28.13 274.4 34.78 266.35 34.78 266.35 71.53 258.69 71.53 258.69 34.78 250.64 34.78 250.64 28.13 274.4 28.13"/><polygon class="cls-3" points="296.5 28.13 304.23 28.13 304.23 71.53 296.5 71.53 296.5 53.6 285.93 53.6 285.93 71.53 278.26 71.53 278.26 28.13 285.93 28.13 285.93 46.82 296.5 46.82 296.5 28.13"/><path class="cls-3" d="M329.63,28.13h7.54v43.4h-7.66q-9.31-23.76-10.64-27.65c-.89-2.6-1.38-4-1.46-4.28,0,.09.1.87.32,2.34a105,105,0,0,1,.82,14.26V71.53h-7.48V28.13h7.8q8,20.34,9.31,24t1.87,5.54c.4,1.29.64,2,.73,2.25,0-.17-.11-1-.32-2.41a112.12,112.12,0,0,1-.83-14.38Z"/><rect class="cls-3" x="344.02" y="28.13" width="7.67" height="43.39"/><path class="cls-3" d="M376.89,71.53,374.8,60.7H365l-2,10.83h-7.29l9-43.4h10.58l8.93,43.4Zm-10.64-17.3h7.28L369.86,35Z"/></g></svg>